<svg height="512" viewBox="0 0 64 64" width="512" xmlns="http://www.w3.org/2000/svg"><g id="flat"><circle cx="32" cy="32" fill="#5f96d0" r="29"/><path d="m57 32a24.868 24.868 0 0 1 -6.63 16.95 19.024 19.024 0 0 1 -1.42 1.42 24.982 24.982 0 0 1 -33.9 0 19.024 19.024 0 0 1 -1.42-1.42 24.982 24.982 0 0 1 0-33.9 19.024 19.024 0 0 1 1.42-1.42 24.982 24.982 0 0 1 33.9 0 19.024 19.024 0 0 1 1.42 1.42 24.868 24.868 0 0 1 6.63 16.95z" fill="#ffd782"/><g fill="#e97424"><path d="m34 20h-1a1 1 0 0 1 -.937-.648l-2.063-5.504v6.152h-2v-9a1 1 0 0 1 1-1h1a1 1 0 0 1 .937.648l2.063 5.504v-6.152h2v9a1 1 0 0 1 -1 1z"/><path d="m18 37a1 1 0 0 1 -.895-.553l-2.105-4.211-2.1 4.211a1 1 0 0 1 -1.887-.323l-1-8a1 1 0 1 1 1.984-.248l.591 4.723 1.522-3.046a1.042 1.042 0 0 1 1.79 0l1.517 3.047.591-4.723a1 1 0 0 1 1.984.248l-1 8a1 1 0 0 1 -.823.861.974.974 0 0 1 -.169.014z"/><path d="m34 54h-5v-2h4v-2h-3a1 1 0 0 1 -1-1v-4a1 1 0 0 1 1-1h5v2h-4v2h3a1 1 0 0 1 1 1v4a1 1 0 0 1 -1 1z"/><path d="m54 29v-2h-5a1 1 0 0 0 -1 1v8a1 1 0 0 0 1 1h5v-2h-4v-2h4v-2h-4v-2z"/></g><path d="m37 32h-10l5-11z" fill="#e1462b"/><path d="m27 32h10l-5 11z" fill="#f4f4e6"/><path d="m22.71 21.29-1.42 1.42-7.66-7.66a19.024 19.024 0 0 1 1.42-1.42z" fill="#f9bb4b"/><path d="m50.37 15.05-7.66 7.66-1.42-1.42 7.66-7.66a19.024 19.024 0 0 1 1.42 1.42z" fill="#f9bb4b"/><path d="m22.71 42.71-7.66 7.66a19.024 19.024 0 0 1 -1.42-1.42l7.66-7.66z" fill="#f9bb4b"/><path d="m50.37 48.95a19.024 19.024 0 0 1 -1.42 1.42l-7.66-7.66 1.42-1.42z" fill="#f9bb4b"/></g></svg>