<?xml version="1.0" encoding="iso-8859-1"?>
<!-- Generator: Adobe Illustrator 19.0.0, SVG Export Plug-In . SVG Version: 6.00 Build 0)  -->
<svg version="1.1" id="Capa_1" xmlns="http://www.w3.org/2000/svg" xmlns:xlink="http://www.w3.org/1999/xlink" x="0px" y="0px"
	 viewBox="0 0 512 512" style="enable-background:new 0 0 512 512;" xml:space="preserve">
<g>
	<path style="fill:#CB8252;" d="M460.006,66.649l-55.172-17.037c-56.018-17.375-116.442-13.799-170.019,10.063l-17.39,7.68
		C163.32,91.433,102.271,94.857,45.815,76.977l-1.677,4.767v413.747c-0.483,8.595,6.062,15.968,14.654,16.508h394.417
		c8.591-0.54,15.137-7.913,14.654-16.508V73.358l0.618-5.032C465.604,68.066,462.764,67.504,460.006,66.649z"/>
	<g>
		<path style="fill:#805333;" d="M467.862,273.654v101.694h-2.119c0,0-30.72-32.309-126.411-58.35
			c-95.25-25.865-131.443,21.451-211.068,7.327c-79.537-14.212-83.686-41.843-83.686-41.843h-0.441V180.787h0.441
			c0,0,4.149,27.63,83.686,41.754c79.625,14.212,115.818-33.103,211.068-7.239c95.691,25.953,126.411,58.35,126.411,58.35H467.862z"
			/>
		<path style="fill:#805333;" d="M467.862,468.832v26.659c0.483,8.595-6.062,15.968-14.654,16.508H58.792
			c-8.591-0.54-15.137-7.913-14.654-16.508V375.965h0.441c0,0,4.149,27.63,83.686,41.843
			c79.625,14.124,115.818-33.191,211.068-7.327c95.691,26.041,126.411,58.35,126.411,58.35H467.862z"/>
	</g>
	<path style="fill:#46B29D;" d="M512,72.473v1.324c-0.159,11.071-4.965,21.566-13.242,28.92c-8.277,7.354-19.265,10.89-30.278,9.745
		c-2.876-0.26-5.716-0.823-8.474-1.677l-55.172-17.037c-56.018-17.375-116.442-13.799-170.019,10.063l-17.39,7.68
		c-54.103,24.078-115.153,27.501-171.608,9.622c-7.374-2.298-14.622-4.979-21.716-8.033C9.635,107.06,0.153,92.995,0,77.328v-0.177
		c0.339-12.558,6.564-24.224,16.806-31.498c10.242-7.274,23.309-9.307,35.277-5.49c54.75,15.723,113.288,11.66,165.341-11.476
		l17.39-7.768C288.391-2.942,348.815-6.519,404.833,10.856l79.36,24.629C500.594,40.348,511.885,55.366,512,72.473z"/>
</g>
<g>
</g>
<g>
</g>
<g>
</g>
<g>
</g>
<g>
</g>
<g>
</g>
<g>
</g>
<g>
</g>
<g>
</g>
<g>
</g>
<g>
</g>
<g>
</g>
<g>
</g>
<g>
</g>
<g>
</g>
</svg>
